<svg width="148" height="148" viewBox="0 0 148 148" fill="none" xmlns="http://www.w3.org/2000/svg">
<path d="M50.2419 121.71H46.8387C19.6129 121.71 6 114.903 6 80.871V46.8387C6 19.6129 19.6129 6 46.8387 6H101.29C128.516 6 142.129 19.6129 142.129 46.8387V80.871C142.129 108.097 128.516 121.71 101.29 121.71H97.8871C95.7771 121.71 93.7352 122.731 92.4419 124.432L82.2323 138.045C77.74 144.035 70.389 144.035 65.8968 138.045L55.6871 124.432C54.5981 122.935 52.0797 121.71 50.2419 121.71Z" stroke="white" stroke-width="10.2097" stroke-miterlimit="10" stroke-linecap="round" stroke-linejoin="round"/>
<path d="M101.264 67.2578H101.324" stroke="white" stroke-width="13.6129" stroke-linecap="round" stroke-linejoin="round"/>
<path d="M74.0312 67.2578H74.0925" stroke="white" stroke-width="13.6129" stroke-linecap="round" stroke-linejoin="round"/>
<path d="M46.7988 67.2581H46.86" stroke="white" stroke-width="13.6129" stroke-linecap="round" stroke-linejoin="round"/>
</svg>
